inDegrees=no
num_controls=7
num_derivatives=13
num_iterations=97
num_multipliers=7
num_parameters=0
num_slacks=7
num_states=26
objective=5.648897
objective_accelerations=0.739730
objective_balance=0.061431
objective_effort=0.706664
objective_height=4.069428
objective_ligament=0.071643
solver_duration=1024.978271
status=Solve_Succeeded
success=true
DataType=double
version=3
OpenSimVersion=4.4-2022-07-23-0e9fedc
endheader
time	/jointset/ground_pelvis/pelvis_tilt/value	/jointset/ground_pelvis/pelvis_tx/value	/jointset/ground_pelvis/pelvis_ty/value	/jointset/hip_l/hip_flexion_l/value	/jointset/hip_l/hip_adduction_l/value	/jointset/hip_l/hip_rotation_l/value	/jointset/back/lumbar_extension/value	/jointset/patellofemoral_l/patellar_flexion_l/value	/jointset/knee_l/knee_flexion_l/value	/jointset/knee_l/knee_adduction_l/value	/jointset/knee_l/knee_rotation_l/value	/jointset/ankle_l/ankle_angle_l/value	/jointset/subtalar_l/subtalar_angle_l/value	/jointset/ground_pelvis/pelvis_tilt/speed	/jointset/ground_pelvis/pelvis_tx/speed	/jointset/ground_pelvis/pelvis_ty/speed	/jointset/hip_l/hip_flexion_l/speed	/jointset/hip_l/hip_adduction_l/speed	/jointset/hip_l/hip_rotation_l/speed	/jointset/back/lumbar_extension/speed	/jointset/patellofemoral_l/patellar_flexion_l/speed	/jointset/knee_l/knee_flexion_l/speed	/jointset/knee_l/knee_adduction_l/speed	/jointset/knee_l/knee_rotation_l/speed	/jointset/ankle_l/ankle_angle_l/speed	/jointset/subtalar_l/subtalar_angle_l/speed	/forceset/tau_hip_flexion_l	/forceset/tau_hip_adduction_l	/forceset/tau_hip_rotation_l	/forceset/tau_knee_flexion_l	/forceset/tau_ankle_angle_l	/forceset/tau_subtalar_angle_l	/forceset/tau_lumbar_extension	lambda_cid13_p0	lambda_cid13_p1	lambda_cid13_p2	lambda_cid13_p3	lambda_cid13_p4	lambda_cid13_p5	lambda_cid14_p0	/jointset/ground_pelvis/pelvis_tilt/accel	/jointset/ground_pelvis/pelvis_tx/accel	/jointset/ground_pelvis/pelvis_ty/accel	/jointset/hip_l/hip_flexion_l/accel	/jointset/hip_l/hip_adduction_l/accel	/jointset/hip_l/hip_rotation_l/accel	/jointset/back/lumbar_extension/accel	/jointset/patellofemoral_l/patellar_flexion_l/accel	/jointset/knee_l/knee_flexion_l/accel	/jointset/knee_l/knee_adduction_l/accel	/jointset/knee_l/knee_rotation_l/accel	/jointset/ankle_l/ankle_angle_l/accel	/jointset/subtalar_l/subtalar_angle_l/accel	gamma_cid13_p0	gamma_cid13_p1	gamma_cid13_p2	gamma_cid13_p3	gamma_cid13_p4	gamma_cid13_p5	gamma_cid14_p0
0.5	-0.1548092556162223	-0.08315457848035589	0.6736969225608284	1.404131552443175	-0.3209557169401924	0.04207721387919394	-0.867895421990707	1.371563317489481	1.371563317489444	-0.03784273607622963	-0.1745180269652753	0.2182558879906896	0.04867577016807235	-0.1478333922474875	-0.1087303082390031	-0.8884427672538561	2.68623879329076	0.07247146710753188	0.8221390218075175	-0.7139611999483303	2.792693677880992	2.792693677880906	0.2919551852136477	6.480569997910902e-05	0.4432076568540341	0.2587950558788129	-0.3671897585679317	-0.01137045827732092	-0.002845649228309641	-0.3347748396650355	0.1257912373313074	0.03314900853060076	0.4134690635827796	-5.564909839683062	-12.48782866337203	0.4692727078735994	-23.66295562566028	-734.6665421292415	-69.641081925801	-0.04241734259621529	1.390522355704645	1.33316182903563	-0.03664154976261567	-2.902268965110629	0.7057849467835248	-0.6284646023996312	3.194346913930351	-3.15832606189224	-3.158326061892219	-0.2208549599334718	0.008428430749028526	-1.838692321909914	0.3351581011388279	-1.305525222007413e-07	4.988461158075085e-08	2.125671016545345e-06	-3.162742667091903e-08	-2.325441552767623e-07	1.588102692887055e-06	-3.430101403709663e-07
0.51	-0.1562179811622352	-0.0841756111361095	0.6648127803673219	1.43084615280766	-0.3201963154118153	0.05026822896259527	-0.8748752744897265	1.399328947620769	1.399328947620749	-0.03493639338891922	-0.1745173204557422	0.2225948280335664	0.05127917401025624	-0.1338891628272184	-0.0955156812967889	-0.8881604107181752	2.656362859438154	0.07939422461444798	0.816018735873634	-0.6820301391052692	2.760073288779141	2.760073288779115	0.2892939483231721	7.454260073092256e-05	0.4244937102567887	0.2618251527181076	-0.3748059467854945	-0.01275373057079343	-0.00227180890110782	-0.3426780710792428	0.1260501588181634	0.03149235774260585	0.4212140285621198	-6.121657343106836	-11.49476282463982	0.1098011895671194	-23.14432472906952	-743.5336899840313	-69.44090415422876	-0.04214853428648886	1.399723171666501	1.309682060261616	0.09442278048874431	-3.078054572774905	0.683056038257874	-0.6108337348341932	3.189359782719599	-3.367691456451772	-3.36769145644294	-0.2917766481381631	-0.002617510350887127	-1.900706066046376	0.2776066008184132	-7.158534433876722e-08	6.206046186750172e-08	1.765302182891878e-06	-9.093208328023674e-08	-1.8236887723813e-07	1.401411513261428e-06	-2.866213575129021e-07
0.52	-0.1574865944267746	-0.08506568373575261	0.6559382114442237	1.457252434038118	-0.3193681793312487	0.05839663655748887	-0.8815364415576725	1.426757614636614	1.426757614636628	-0.03205726678944129	-0.1745164893432508	0.2267440365629878	0.0539110130459317	-0.1198109359477312	-0.08253829701690381	-0.8865281131722579	2.624574966487978	0.0862183775458393	0.8096175241016957	-0.6502241137331225	2.725301054792479	2.725301054792511	0.2865119676513603	8.972629791577919e-05	0.4052613541629553	0.2644820945771451	-0.3824221350030376	-0.01413700286422211	-0.001697968574101081	-0.3505813024934538	0.1263090803050308	0.02983570695467403	0.4289589935414735	-6.698139933505923	-10.4931234542635	-0.2568809096677593	-22.63051425749757	-752.6550094030987	-69.31925973438456	-0.04179368118694161	1.417321847548973	1.285713296569364	0.2333466522845526	-3.284660784624423	0.6860640316786096	-0.6846497700105616	3.169339819747845	-3.5886950388545	-3.588695038854509	-0.2450037162006222	0.009517790035713763	-1.942374221228205	0.2605271050871961	-2.055391826625474e-08	4.130211062787311e-08	1.392118911304295e-06	-1.503205255713088e-07	-1.408495186488156e-07	1.163945748491354e-06	-2.311302974696e-07
0.53	-0.1586139686650031	-0.08582725174546142	0.6470866723881975	1.483331495321068	-0.3184721639710538	0.06645912053004793	-0.8878803492610683	1.453828099787549	1.45382809978753	-0.02920587373171132	-0.1745154142081984	0.2306987024425045	0.05656781782012372	-0.1056609287108856	-0.06982274579721932	-0.8835576027396665	2.590929841331862	0.09296309225558175	0.8028362422048655	-0.6185992114823059	2.688460856163051	2.688460856163058	0.2837350969789059	0.0001209519907339982	0.3856176613604819	0.2668175397691427	-0.3893006255653995	-0.01561552062581785	-0.001102329696356176	-0.3581191141040165	0.1264307545195517	0.02814508525740817	0.4359491033525725	-7.282825542252086	-9.470500403822625	-0.6323859430640049	-22.02357024765734	-761.0642140999204	-69.183978368632	-0.04145039081984975	1.414262252781356	1.257323599822374	0.3621937241354182	-3.450580065284005	0.6652631169930422	-0.6814646497342182	3.152797747961876	-3.781909762856744	-3.781909762860454	-0.2988384945353579	-0.0004615105065506045	-1.98345870830195	0.2107055467869365	2.67759257030469e-08	1.503255655377716e-08	1.020401142351233e-06	-2.067554641005353e-07	-1.027958271515882e-07	8.850885664293221e-07	-1.736980737545594e-07
